<svg width="224" height="71" viewBox="0 0 224 71" fill="none" xmlns="http://www.w3.org/2000/svg">
<mask id="mask0" mask-type="alpha" maskUnits="userSpaceOnUse" x="94" y="2" width="130" height="30">
<rect x="94" y="2" width="130" height="30" fill="#C4C4C4"/>
</mask>
<g mask="url(#mask0)">
<path d="M7.13693 17.094C7.13693 15.3697 7.35247 13.7468 7.78354 12.2254C8.21461 10.704 8.96265 9.38542 10.0276 8.2697C11.118 7.12863 12.576 6.22845 14.4018 5.56917C16.2275 4.90988 18.5223 4.58024 21.2862 4.58024H22.6555C25.4194 4.58024 27.7143 4.90988 29.54 5.56917C31.3657 6.22845 32.811 7.12863 33.876 8.2697C34.9664 9.38542 35.7271 10.704 36.1582 12.2254C36.5893 13.7468 36.8048 15.3697 36.8048 17.094V19.0718C36.8048 20.7961 36.5893 22.419 36.1582 23.9404C35.7271 25.4618 34.9664 26.7931 33.876 27.9342C32.811 29.0499 31.3657 29.9374 29.54 30.5967C27.7143 31.256 25.4194 31.5856 22.6555 31.5856H21.2862C18.5223 31.5856 16.2275 31.256 14.4018 30.5967C12.576 29.9374 11.118 29.0499 10.0276 27.9342C8.96265 26.7931 8.21461 25.4618 7.78354 23.9404C7.35247 22.419 7.13693 20.7961 7.13693 19.0718V17.094ZM13.9834 18.0829C13.9834 19.0465 14.0214 19.9847 14.0975 20.8976C14.1989 21.7851 14.4905 22.5711 14.9723 23.2558C15.4794 23.9404 16.2655 24.4856 17.3305 24.8913C18.4209 25.297 19.9676 25.4999 21.9709 25.4999C23.9741 25.4999 25.5082 25.297 26.5732 24.8913C27.6635 24.4856 28.4496 23.9404 28.9314 23.2558C29.4385 22.5711 29.7301 21.7851 29.8062 20.8976C29.9076 19.9847 29.9584 19.0465 29.9584 18.0829C29.9584 17.1193 29.9076 16.1938 29.8062 15.3063C29.7301 14.4188 29.4385 13.6327 28.9314 12.9481C28.4496 12.2635 27.6635 11.7183 26.5732 11.3126C25.5082 10.9068 23.9741 10.704 21.9709 10.704C19.9676 10.704 18.4209 10.9068 17.3305 11.3126C16.2655 11.7183 15.4794 12.2635 14.9723 12.9481C14.4905 13.6327 14.1989 14.4188 14.0975 15.3063C14.0214 16.1938 13.9834 17.1193 13.9834 18.0829Z" fill="#323244"/>
<path d="M43.0955 11.807L45.1495 13.0242C46.3666 12.3649 47.6598 11.8704 49.0291 11.5408C50.3984 11.2111 51.9198 11.0463 53.5934 11.0463C55.7234 11.0463 57.4857 11.2999 58.8804 11.807C60.275 12.2888 61.3907 12.9608 62.2275 13.8229C63.0643 14.6851 63.6475 15.6993 63.9771 16.8658C64.3068 18.0068 64.4716 19.2367 64.4716 20.5552V30.8249H58.3859V21.316C58.3859 20.7074 58.3605 20.1115 58.3098 19.5283C58.2591 18.9451 58.0689 18.4379 57.7393 18.0068C57.4096 17.5758 56.9025 17.2335 56.2179 16.9799C55.5332 16.701 54.5443 16.5615 53.2511 16.5615C52.1861 16.5615 51.1971 16.6376 50.2843 16.7897C49.3714 16.9165 48.4966 17.1193 47.6598 17.3983V30.8249H41.5741V11.807H43.0955Z" fill="#323244"/>
<path d="M79.8975 31.5856C77.7675 31.5856 76.0052 31.332 74.6105 30.8249C73.2159 30.3431 72.1002 29.6711 71.2634 28.809C70.4266 27.9468 69.8434 26.9452 69.5137 25.8042C69.1841 24.6377 69.0193 23.3952 69.0193 22.0767V20.5552C69.0193 19.2367 69.1841 18.0068 69.5137 16.8658C69.8434 15.6993 70.4266 14.6851 71.2634 13.8229C72.1002 12.9608 73.2159 12.2888 74.6105 11.807C76.0052 11.2999 77.7675 11.0463 79.8975 11.0463H80.9625C83.1178 11.0463 84.8802 11.2111 86.2494 11.5408C87.6187 11.8451 88.6837 12.2761 89.4444 12.834C90.2051 13.3918 90.725 14.0385 91.0039 14.7738C91.2828 15.5092 91.4223 16.2952 91.4223 17.132V17.5124C91.4223 18.2731 91.3209 18.9958 91.118 19.6804C90.9405 20.3651 90.4968 20.9736 89.7868 21.5061C89.0768 22.0386 88.0244 22.457 86.6298 22.7613C85.2605 23.0656 83.3841 23.2177 81.0005 23.2177C79.8594 23.2177 78.8071 23.167 77.8435 23.0656C76.88 22.9642 75.9671 22.7867 75.105 22.5331C75.1303 23.0656 75.2191 23.5601 75.3712 24.0165C75.5234 24.4476 75.8023 24.8152 76.208 25.1195C76.6391 25.4238 77.235 25.6647 77.9957 25.8422C78.7564 25.9943 79.7707 26.0704 81.0385 26.0704C81.6471 26.0704 82.3191 26.0451 83.0544 25.9943C83.8151 25.9436 84.5885 25.8802 85.3746 25.8042C86.186 25.7027 86.9721 25.5886 87.7328 25.4618C88.5189 25.3097 89.2416 25.1322 89.9009 24.9293V30.6347C89.2416 30.7868 88.5189 30.9136 87.7328 31.0151C86.9721 31.1418 86.1734 31.2433 85.3366 31.3193C84.5251 31.4208 83.7137 31.4842 82.9023 31.5095C82.0909 31.5602 81.3301 31.5856 80.6201 31.5856H79.8975ZM81.0005 15.8008C79.9862 15.8008 79.1368 15.8642 78.4521 15.991C77.7675 16.0924 77.2096 16.2572 76.7785 16.4854C76.3475 16.7136 76.0178 16.9926 75.7896 17.3222C75.5614 17.6518 75.3966 18.0322 75.2952 18.4633C76.0305 18.6661 76.8166 18.8183 77.6534 18.9197C78.5155 18.9958 79.5044 19.0338 80.6201 19.0338C81.7359 19.0338 82.6107 18.9958 83.2446 18.9197C83.8785 18.8183 84.3476 18.7042 84.6519 18.5774C84.9562 18.4252 85.1464 18.2731 85.2225 18.121C85.2985 17.9435 85.3366 17.766 85.3366 17.5885C85.3366 17.411 85.2985 17.2208 85.2225 17.0179C85.1718 16.7897 84.9943 16.5868 84.69 16.4093C84.411 16.2318 83.98 16.0924 83.3968 15.991C82.8135 15.8642 82.0148 15.8008 81.0005 15.8008Z" fill="#323244"/>
<path d="M104.354 30.8249V11.4267H94.4646V5.34095H121.128V11.4267H111.2V30.8249H104.354Z" fill="#323244"/>
<path d="M122.693 20.5552C122.693 19.2367 122.858 18.0068 123.187 16.8658C123.517 15.6993 124.1 14.6851 124.937 13.8229C125.774 12.9608 126.889 12.2888 128.284 11.807C129.679 11.2999 131.441 11.0463 133.571 11.0463H134.636C136.766 11.0463 138.528 11.2999 139.923 11.807C141.318 12.2888 142.433 12.9608 143.27 13.8229C144.107 14.6851 144.69 15.6993 145.02 16.8658C145.349 18.0068 145.514 19.2367 145.514 20.5552V22.0767C145.514 23.3952 145.349 24.6377 145.02 25.8042C144.69 26.9452 144.107 27.9468 143.27 28.809C142.433 29.6711 141.318 30.3431 139.923 30.8249C138.528 31.332 136.766 31.5856 134.636 31.5856H133.571C131.441 31.5856 129.679 31.332 128.284 30.8249C126.889 30.3431 125.774 29.6711 124.937 28.809C124.1 27.9468 123.517 26.9452 123.187 25.8042C122.858 24.6377 122.693 23.3952 122.693 22.0767V20.5552ZM128.778 21.316C128.778 21.9245 128.804 22.5204 128.854 23.1036C128.905 23.6868 129.095 24.194 129.425 24.6251C129.78 25.0561 130.313 25.4111 131.023 25.6901C131.733 25.9436 132.759 26.0704 134.103 26.0704C135.422 26.0704 136.436 25.9436 137.146 25.6901C137.882 25.4111 138.414 25.0561 138.744 24.6251C139.099 24.194 139.302 23.6868 139.352 23.1036C139.403 22.5204 139.428 21.9245 139.428 21.316C139.428 20.7074 139.403 20.1115 139.352 19.5283C139.302 18.9451 139.099 18.4379 138.744 18.0068C138.414 17.5758 137.882 17.2335 137.146 16.9799C136.436 16.701 135.422 16.5615 134.103 16.5615C132.759 16.5615 131.733 16.701 131.023 16.9799C130.313 17.2335 129.78 17.5758 129.425 18.0068C129.095 18.4379 128.905 18.9451 128.854 19.5283C128.804 20.1115 128.778 20.7074 128.778 21.316Z" fill="#323244"/>
<path d="M160.566 31.5856C158.512 31.5856 156.8 31.332 155.431 30.8249C154.087 30.3431 153.009 29.6711 152.198 28.809C151.412 27.9468 150.854 26.9452 150.524 25.8042C150.22 24.6377 150.068 23.3952 150.068 22.0767V11.807H156.154V21.316C156.154 21.9245 156.179 22.5204 156.23 23.1036C156.281 23.6868 156.458 24.194 156.762 24.6251C157.067 25.0561 157.548 25.4111 158.208 25.6901C158.892 25.9436 159.856 26.0704 161.098 26.0704C162.341 26.0704 163.292 25.9436 163.951 25.6901C164.636 25.4111 165.13 25.0561 165.434 24.6251C165.739 24.194 165.916 23.6868 165.967 23.1036C166.018 22.5204 166.043 21.9245 166.043 21.316V11.807H172.129V22.0767C172.129 23.3952 171.964 24.6377 171.634 25.8042C171.305 26.9452 170.734 27.9468 169.923 28.809C169.137 29.6711 168.072 30.3431 166.728 30.8249C165.384 31.332 163.685 31.5856 161.631 31.5856H160.566Z" fill="#323244"/>
<path d="M176.7 20.5552C176.7 19.2367 176.865 18.0068 177.195 16.8658C177.525 15.6993 178.108 14.6851 178.945 13.8229C179.781 12.9608 180.897 12.2888 182.292 11.807C183.686 11.2999 185.449 11.0463 187.579 11.0463H188.644C190.013 11.0463 191.344 11.1351 192.637 11.3126C193.956 11.4647 195.237 11.6929 196.479 11.9972V17.6645C195.059 17.2588 193.639 16.9799 192.219 16.8277C190.799 16.6502 189.557 16.5615 188.492 16.5615C187.072 16.5615 185.968 16.6883 185.182 16.9418C184.422 17.1701 183.864 17.4997 183.509 17.9308C183.154 18.3365 182.938 18.831 182.862 19.4142C182.812 19.9974 182.786 20.6313 182.786 21.316C182.786 22.0006 182.812 22.6345 182.862 23.2177C182.938 23.801 183.154 24.3081 183.509 24.7392C183.864 25.1449 184.422 25.4745 185.182 25.7281C185.968 25.9563 187.072 26.0704 188.492 26.0704C189.557 26.0704 190.799 25.9943 192.219 25.8422C193.639 25.6647 195.059 25.3731 196.479 24.9674V30.6347C195.237 30.939 193.956 31.1672 192.637 31.3193C191.344 31.4968 190.013 31.5856 188.644 31.5856H187.579C185.449 31.5856 183.686 31.332 182.292 30.8249C180.897 30.3431 179.781 29.6711 178.945 28.809C178.108 27.9468 177.525 26.9452 177.195 25.8042C176.865 24.6377 176.7 23.3952 176.7 22.0767V20.5552Z" fill="#323244"/>
<path d="M202.964 2.2981L207.529 4.9606V11.9211C208.416 11.6422 209.342 11.4267 210.305 11.2745C211.269 11.1224 212.321 11.0463 213.462 11.0463C215.592 11.0463 217.355 11.2999 218.749 11.807C220.144 12.2888 221.26 12.9608 222.096 13.8229C222.933 14.6851 223.516 15.6993 223.846 16.8658C224.176 18.0068 224.34 19.2367 224.34 20.5552V30.8249H218.255V21.316C218.255 20.7074 218.229 20.1115 218.179 19.5283C218.128 18.9451 217.938 18.4379 217.608 18.0068C217.279 17.5758 216.771 17.2335 216.087 16.9799C215.402 16.701 214.413 16.5615 213.12 16.5615C212.055 16.5615 211.066 16.6376 210.153 16.7897C209.24 16.9165 208.365 17.1193 207.529 17.3983V30.8249H201.443V2.2981H202.964Z" fill="#323244"/>
</g>
<path d="M32.2061 2.00726e-05C14.4192 1.85176e-05 -3.25886e-06 14.4192 -4.81384e-06 32.2062C-6.36883e-06 49.9931 14.4192 64.4123 32.2061 64.4123C49.9931 64.4123 64.4123 49.9931 64.4123 32.2062C64.4123 14.4192 49.9931 2.16276e-05 32.2061 2.00726e-05Z" fill="#FF4D00"/>
<path d="M32.2061 2.00726e-05C14.4192 1.85176e-05 -3.25886e-06 14.4192 -4.81384e-06 32.2062C-6.36883e-06 49.9931 14.4192 64.4123 32.2061 64.4123C49.9931 64.4123 64.4123 49.9931 64.4123 32.2062C64.4123 14.4192 49.9931 2.16276e-05 32.2061 2.00726e-05Z" fill="url(#paint0_radial)"/>
<path d="M64.4123 32.2065C46.6452 32.2065 32.2061 17.7674 32.2061 0.000343834L32.2061 32.2065L64.4123 32.2065Z" fill="white"/>
<path d="M111.336 64.1692L116.428 57.0589C115.082 56.5207 114.016 55.6824 113.23 54.5439C112.443 53.4054 112.05 52.122 112.05 50.6937V48.334H115.621V50.6937C115.621 51.6873 115.952 52.5463 116.614 53.2708C117.297 53.9953 118.115 54.4404 119.067 54.606L123.476 48.334H127.419L122.545 55.1338C124.056 55.6513 125.236 56.5103 126.084 57.7109C126.954 58.9115 127.388 60.2673 127.388 61.7784V64.1692H123.849V61.7784C123.849 60.702 123.455 59.7809 122.669 59.015C121.903 58.2284 120.951 57.7937 119.812 57.7109L115.279 64.1692H111.336Z" fill="#828294"/>
<path d="M139.082 47.9614C137.467 47.9614 136.039 48.3029 134.797 48.986C133.555 49.6691 132.582 50.6523 131.878 51.9357C131.195 53.1984 130.854 54.6991 130.854 56.4379V71.0001H134.424V61.7784H134.456C134.952 62.6064 135.666 63.2791 136.598 63.7966C137.55 64.2934 138.575 64.5418 139.672 64.5418C141.162 64.5418 142.487 64.2106 143.646 63.5482C144.805 62.8652 145.706 61.9233 146.348 60.7227C147.01 59.5222 147.341 58.1146 147.341 56.5C147.341 54.8026 147 53.3122 146.316 52.0289C145.654 50.7455 144.702 49.7519 143.46 49.0481C142.239 48.3236 140.779 47.9614 139.082 47.9614ZM139.082 51.0042C140.448 51.0042 141.566 51.4907 142.435 52.4636C143.305 53.4364 143.739 54.6991 143.739 56.2516C143.739 57.2659 143.543 58.1663 143.149 58.9529C142.756 59.7395 142.208 60.3605 141.504 60.8159C140.8 61.2713 140.003 61.499 139.113 61.499C137.747 61.499 136.629 61.0125 135.76 60.0396C134.89 59.0461 134.456 57.7834 134.456 56.2516C134.456 54.6991 134.89 53.4364 135.76 52.4636C136.629 51.4907 137.736 51.0042 139.082 51.0042Z" fill="#828294"/>
<path d="M150.593 64.1692V52.8361C150.593 51.4286 150.987 50.3315 151.773 49.5449C152.58 48.7376 153.688 48.334 155.095 48.334H158.915V51.3768H155.748C155.251 51.3768 154.857 51.5321 154.568 51.8426C154.299 52.1324 154.164 52.5153 154.164 52.9914V64.1692H150.593Z" fill="#828294"/>
<path d="M169.402 64.1692C167.621 64.1692 166.059 63.838 164.713 63.1756C163.388 62.4926 162.353 61.5611 161.608 60.3812C160.863 59.1806 160.49 57.8041 160.49 56.2516C160.49 54.6163 160.822 53.1777 161.484 51.9357C162.146 50.6937 163.057 49.7208 164.216 49.017C165.375 48.3133 166.711 47.9614 168.222 47.9614C169.919 47.9614 171.316 48.3236 172.413 49.0481C173.51 49.7726 174.318 50.7455 174.835 51.9668C175.373 53.188 175.643 54.5542 175.643 56.0653C175.643 56.5621 175.601 57.0071 175.518 57.4004H164.278C164.465 58.6217 165.034 59.5532 165.986 60.1949C166.938 60.8159 168.077 61.1264 169.402 61.1264H173.655V64.1692H169.402ZM164.247 54.9786H172.072C172.051 54.3162 171.906 53.6745 171.637 53.0535C171.368 52.4118 170.954 51.8943 170.395 51.501C169.857 51.1077 169.132 50.9111 168.222 50.9111C167.394 50.9111 166.69 51.1181 166.11 51.5321C165.551 51.9254 165.117 52.4325 164.806 53.0535C164.496 53.6745 164.309 54.3162 164.247 54.9786Z" fill="#828294"/>
<path d="M178.915 64.1692V61.1264H186.554C187.112 61.1264 187.557 60.9608 187.889 60.6296C188.241 60.2777 188.417 59.8637 188.417 59.3876C188.417 58.9322 188.251 58.5389 187.92 58.2077C187.609 57.8558 187.185 57.6799 186.647 57.6799H183.542C182.01 57.6799 180.747 57.3073 179.754 56.5621C178.781 55.8169 178.294 54.637 178.294 53.0224C178.294 52.1945 178.501 51.4286 178.915 50.7248C179.35 50.0003 179.93 49.4207 180.654 48.986C181.379 48.5513 182.196 48.334 183.107 48.334H190.466V51.3768H183.449C182.972 51.3768 182.579 51.5321 182.269 51.8426C181.958 52.1324 181.803 52.4946 181.803 52.9293C181.803 53.3433 181.958 53.7055 182.269 54.016C182.579 54.3265 182.993 54.4818 183.511 54.4818H186.522C188.22 54.4818 189.545 54.8751 190.497 55.6617C191.449 56.4482 191.925 57.6488 191.925 59.2634C191.925 60.1535 191.708 60.9711 191.273 61.7163C190.838 62.4408 190.238 63.0308 189.472 63.4861C188.727 63.9415 187.878 64.1692 186.926 64.1692H178.915Z" fill="#828294"/>
<path d="M195.41 64.1692V61.1264H203.049C203.607 61.1264 204.053 60.9608 204.384 60.6296C204.736 60.2777 204.912 59.8637 204.912 59.3876C204.912 58.9322 204.746 58.5389 204.415 58.2077C204.104 57.8558 203.68 57.6799 203.142 57.6799H200.037C198.505 57.6799 197.242 57.3073 196.249 56.5621C195.276 55.8169 194.789 54.637 194.789 53.0224C194.789 52.1945 194.996 51.4286 195.41 50.7248C195.845 50.0003 196.425 49.4207 197.149 48.986C197.874 48.5513 198.691 48.334 199.602 48.334H206.961V51.3768H199.944C199.468 51.3768 199.074 51.5321 198.764 51.8426C198.453 52.1324 198.298 52.4946 198.298 52.9293C198.298 53.3433 198.453 53.7055 198.764 54.016C199.074 54.3265 199.488 54.4818 200.006 54.4818H203.018C204.715 54.4818 206.04 54.8751 206.992 55.6617C207.944 56.4482 208.42 57.6488 208.42 59.2634C208.42 60.1535 208.203 60.9711 207.768 61.7163C207.333 62.4408 206.733 63.0308 205.967 63.4861C205.222 63.9415 204.373 64.1692 203.421 64.1692H195.41Z" fill="#828294"/>
<path d="M102.784 64.1692C101.004 64.1692 99.4414 63.838 98.0959 63.1757C96.7712 62.4926 95.7362 61.5611 94.991 60.3812C94.2458 59.1806 93.8732 57.8041 93.8732 56.2516C93.8732 54.6163 94.2044 53.1777 94.8668 51.9357C95.5292 50.6937 96.44 49.7208 97.5991 49.017C98.7583 48.3133 100.093 47.9614 101.605 47.9614C103.302 47.9614 104.699 48.3236 105.796 49.0481C106.893 49.7726 107.701 50.7455 108.218 51.9668C108.756 53.188 109.025 54.5542 109.025 56.0653C109.025 56.5621 108.984 57.0071 108.901 57.4004H97.6612C97.8475 58.6217 98.4168 59.5532 99.369 60.1949C100.321 60.8159 101.46 61.1264 102.784 61.1264H107.038V64.1692H102.784ZM97.6302 54.9786H105.455C105.434 54.3162 105.289 53.6745 105.02 53.0535C104.751 52.4118 104.337 51.8943 103.778 51.501C103.24 51.1077 102.515 50.9111 101.605 50.9111C100.777 50.9111 100.073 51.1181 99.4932 51.5321C98.9343 51.9254 98.4996 52.4325 98.1891 53.0535C97.8786 53.6745 97.6923 54.3162 97.6302 54.9786Z" fill="#FF4D00"/>
<defs>
<radialGradient id="paint0_radial" cx="0" cy="0" r="1" gradientUnits="userSpaceOnUse" gradientTransform="translate(52.8552 8.93045) rotate(131.578) scale(31.115 65.2796)">
<stop stop-color="#FF7800"/>
<stop offset="1" stop-color="#FF7800" stop-opacity="0"/>
</radialGradient>
</defs>
</svg>
